<svg xmlns="http://www.w3.org/2000/svg" xmlns:xlink="http://www.w3.org/1999/xlink" width="15" height="10" viewBox="0 0 15 10">
  <defs>
    <clipPath id="clip-sent">
      <rect width="15" height="10"/>
    </clipPath>
  </defs>
  <g id="sent" clip-path="url(#clip-sent)">
    <path id="Path_19449" data-name="Path 19449" d="M253.135,241.636l-.713.713-1.7,1.7-2.065,2.065-1.773,1.773c-.287.287-.567.581-.86.86l-.026.023.126-.1-.017.009.149-.062a.113.113,0,0,1-.037.011l.164-.022a.109.109,0,0,1-.039,0l.164.022a.175.175,0,0,1-.037-.012l.149.062-.017-.011.126.1c-.161-.138-.3-.3-.454-.453l-.874-.874-1.054-1.054-.732-.732a.62.62,0,0,0-.877.877l1.1,1.1.86.86c.377.377.744.764,1.13,1.13a.762.762,0,0,0,1.065.011l.039-.039.22-.22.9-.9,1.327-1.327,1.5-1.5,1.428-1.428,1.116-1.116.561-.561.025-.025a.621.621,0,1,0-.879-.877Z" transform="translate(-240.123 -240.459)" fill="#878887"/>
  </g>
</svg>
